<svg width="189" height="190" viewBox="0 0 189 190" fill="none" xmlns="http://www.w3.org/2000/svg">
<mask id="mask0_53_2420" style="mask-type:luminance" maskUnits="userSpaceOnUse" x="-19" y="-13" width="221" height="214">
<path d="M201.558 -12.4226H-18.8856V200.673H201.558V-12.4226Z" fill="white"/>
</mask>
<g mask="url(#mask0_53_2420)">
<path d="M152.202 190C144.459 186.698 139.191 182.138 133.495 178.352C121.891 170.613 110.368 162.747 98.9293 154.75C95.8746 152.595 93.5647 152.512 90.3847 154.404C74.5811 163.828 58.6672 173.045 42.7684 182.262C41.7033 182.885 40.667 185.205 39.1865 183.271C38.1637 181.889 39.4916 180.646 40.4872 179.485C50.1648 168.07 59.3032 156.133 69.5912 145.284C70.0187 144.843 70.4583 144.413 70.91 143.994C71.3617 143.576 71.8225 143.169 72.2954 142.775C72.7682 142.381 73.2516 142 73.7441 141.631C74.2381 141.263 74.7412 140.908 75.2518 140.566C75.764 140.225 76.2852 139.897 76.8154 139.583C77.3442 139.269 77.882 138.969 78.4274 138.684C78.9727 138.398 79.5256 138.128 80.0846 137.871C80.6451 137.616 81.2101 137.374 81.7827 137.149C82.3567 136.922 82.9338 136.712 83.5185 136.516C84.1016 136.321 84.6908 136.141 85.2845 135.978C85.8767 135.814 86.4749 135.666 87.0762 135.534C87.6775 135.401 88.2818 135.285 88.8891 135.185C89.4964 135.085 90.1067 135.001 90.7185 134.933C91.3304 134.866 91.9437 134.815 92.5586 134.779C93.172 134.744 93.7883 134.726 94.4032 134.723C95.0196 134.721 95.6344 134.735 96.2493 134.765C96.8642 134.795 97.4775 134.842 98.0909 134.904C98.7027 134.968 99.313 135.046 99.9203 135.143C100.529 135.238 101.135 135.348 101.736 135.477C102.339 135.604 102.937 135.747 103.532 135.907C104.126 136.066 104.717 136.241 105.302 136.431C105.888 136.622 106.468 136.829 107.042 137.049C107.616 137.271 108.184 137.509 108.746 137.759C109.308 138.012 109.862 138.278 110.411 138.559C110.958 138.84 111.497 139.136 112.029 139.445C112.561 139.755 113.085 140.08 113.598 140.417C114.114 140.755 114.62 141.106 115.115 141.47C115.611 141.835 116.097 142.213 116.573 142.603C117.049 142.992 117.514 143.396 117.969 143.811C118.422 144.225 118.866 144.653 119.298 145.091C119.729 145.53 120.149 145.979 120.557 146.44C120.965 146.902 121.36 147.374 121.743 147.855C132.085 161.121 141.529 175.048 152.202 190Z" fill="#FABD0D" fill-opacity="0.34"/>
<path d="M34.9142 182.096C35.2042 173.681 37.5413 167.131 39.0626 160.456C42.0901 146.846 45.2293 133.263 48.6028 119.735C49.5017 116.1 48.7403 113.917 45.8367 111.638C31.2779 100.321 16.9411 88.8242 2.57573 77.3276C1.62095 76.5662 -0.923098 76.4423 0.348927 74.3696C1.22061 72.9873 2.90657 73.7064 4.34478 74.2035C16.2492 78.3489 44.5646 88.022 46.7778 88.9617C47.3443 89.2019 47.9048 89.4557 48.4577 89.7246C49.0122 89.9935 49.5576 90.2775 50.0969 90.5751C50.6347 90.8742 51.165 91.1854 51.6877 91.5117C52.2089 91.8381 52.721 92.1795 53.2256 92.533C53.7286 92.8865 54.2227 93.2521 54.7076 93.6328C55.1925 94.012 55.6654 94.4048 56.1292 94.8096C56.593 95.2145 57.0447 95.6315 57.4858 96.0605C57.9269 96.4896 58.356 96.9307 58.7744 97.3824C59.1914 97.8341 59.5978 98.2964 59.9906 98.7707C60.3834 99.2436 60.7641 99.727 61.1312 100.221C61.4983 100.715 61.8533 101.218 62.1932 101.73C62.5346 102.242 62.8609 102.764 63.1737 103.294C63.4864 103.824 63.7855 104.362 64.0695 104.907C64.3535 105.453 64.6239 106.006 64.8793 106.566C65.1331 107.127 65.3733 107.692 65.5984 108.266C65.8235 108.838 66.0319 109.417 66.2268 110C66.4202 110.585 66.5985 111.172 66.7616 111.766C66.9233 112.36 67.0713 112.956 67.2012 113.558C67.3327 114.159 67.4475 114.763 67.5457 115.371C67.6454 115.978 67.727 116.587 67.7934 117.198C67.8599 117.81 67.9098 118.424 67.943 119.039C67.9777 119.652 67.9944 120.267 67.9959 120.882C67.9959 121.498 67.9808 122.113 67.949 122.726C67.9173 123.341 67.869 123.954 67.8055 124.566C67.7406 125.178 67.6605 125.788 67.5638 126.396C67.4671 127.003 67.3538 127.607 67.2254 128.209C67.0955 128.811 66.952 129.408 66.7903 130.003C66.6302 130.597 66.4534 131.186 66.2616 131.771C66.0697 132.356 65.8612 132.934 65.6391 133.507C65.4156 134.081 65.1784 134.647 64.9246 135.209C64.6723 135.77 64.4034 136.323 64.1209 136.87C63.8384 137.416 63.5423 137.956 63.2311 138.486C54.5898 152.941 44.9378 166.758 34.9142 182.096Z" fill="#FABD0D" fill-opacity="0.34"/>
<path d="M38.7997 124.074C38.7997 124.415 38.7831 124.755 38.7514 125.093C38.7182 125.432 38.6698 125.769 38.6064 126.104C38.5414 126.438 38.4613 126.769 38.3646 127.097C38.2695 127.423 38.1577 127.745 38.0308 128.061C37.9039 128.376 37.7634 128.686 37.6078 128.99C37.4507 129.292 37.2815 129.586 37.0972 129.873C36.9128 130.16 36.7149 130.437 36.505 130.706C36.295 130.973 36.0714 131.23 35.8357 131.478C35.6015 131.724 35.3553 131.958 35.097 132.182C34.8401 132.405 34.5727 132.615 34.2948 132.813C34.0183 133.011 33.7313 133.195 33.4367 133.366C33.1421 133.537 32.8384 133.692 32.5287 133.834C32.219 133.977 31.9033 134.103 31.5815 134.215C31.2597 134.327 30.9319 134.424 30.6011 134.504C30.2702 134.585 29.9364 134.65 29.5995 134.699C29.2611 134.747 28.9227 134.78 28.5827 134.797C28.2277 134.804 27.8742 134.794 27.5207 134.767C27.1687 134.739 26.8167 134.694 26.4677 134.634C26.1188 134.572 25.7743 134.493 25.4329 134.4C25.0915 134.304 24.7561 134.193 24.4253 134.066C24.0944 133.939 23.7711 133.795 23.4539 133.637C23.1381 133.478 22.8299 133.304 22.5308 133.115C22.2302 132.927 21.9401 132.724 21.6606 132.507C21.3812 132.289 21.1122 132.059 20.8539 131.818C20.5956 131.574 20.3508 131.319 20.1182 131.053C19.884 130.786 19.665 130.509 19.4595 130.221C19.2526 129.932 19.0622 129.635 18.8839 129.33C18.7072 129.023 18.5455 128.709 18.399 128.385C18.2525 128.064 18.121 127.734 18.0062 127.4C17.8914 127.065 17.7932 126.725 17.7116 126.381C17.63 126.036 17.5651 125.689 17.5167 125.338C17.4699 124.988 17.4382 124.634 17.4246 124.281C17.4276 123.939 17.4472 123.599 17.4835 123.261C17.5198 122.921 17.5711 122.584 17.6391 122.25C17.7071 121.916 17.7917 121.586 17.8899 121.259C17.9896 120.933 18.1044 120.613 18.2343 120.297C18.3643 119.981 18.5078 119.673 18.6679 119.371C18.8265 119.069 19.0003 118.776 19.1861 118.49C19.3734 118.205 19.5743 117.93 19.7873 117.662C20.0004 117.396 20.2255 117.141 20.4626 116.896C20.6998 116.652 20.9491 116.417 21.2089 116.197C21.4688 115.975 21.7377 115.766 22.0172 115.57C22.2967 115.375 22.5852 115.192 22.8813 115.025C23.1789 114.855 23.4826 114.701 23.7938 114.562C24.105 114.422 24.4222 114.298 24.7455 114.188C25.0688 114.079 25.3966 113.985 25.729 113.907C26.0614 113.828 26.3952 113.766 26.7336 113.719C27.072 113.672 27.4119 113.642 27.7519 113.627C28.1069 113.609 28.4604 113.609 28.8154 113.627C29.1689 113.644 29.5209 113.68 29.8714 113.733C30.2219 113.786 30.5693 113.857 30.9123 113.946C31.2567 114.034 31.5936 114.139 31.926 114.262C32.2598 114.384 32.5846 114.523 32.9034 114.679C33.2222 114.834 33.5319 115.005 33.8325 115.192C34.1346 115.38 34.4262 115.58 34.7057 115.797C34.9867 116.014 35.2556 116.244 35.5139 116.487C35.7707 116.73 36.0155 116.987 36.2481 117.254C36.4793 117.523 36.6968 117.803 36.9008 118.093C37.1032 118.383 37.292 118.682 37.4643 118.992C37.638 119.301 37.7936 119.619 37.9356 119.943C38.0761 120.268 38.2 120.601 38.3072 120.937C38.4145 121.276 38.5051 121.617 38.5777 121.965C38.6502 122.312 38.7046 122.661 38.7423 123.013C38.7786 123.367 38.7982 123.72 38.7997 124.074Z" fill="#FABD0D" fill-opacity="0.34"/>
<path d="M1.57993 68.4975C9.66832 66.1347 16.6222 66.3145 23.4249 65.6513C37.251 64.269 51.201 63.012 65.1102 61.9893C68.8431 61.7128 70.6409 60.3033 71.9401 56.8211C78.1764 39.534 84.6332 22.2755 91.0764 5.11378C91.5054 3.95203 90.8271 1.50618 93.205 2.0591C94.8502 2.44585 94.5873 4.28439 94.5873 5.80417C94.3531 20.7829 94.8653 35.7889 93.8002 50.6997C93.7488 51.313 93.6824 51.9234 93.5993 52.5337C93.5162 53.1425 93.4165 53.7498 93.3017 54.3541C93.1869 54.9584 93.0554 55.5582 92.9074 56.1564C92.7593 56.7531 92.5962 57.3469 92.4179 57.9345C92.2396 58.5237 92.0448 59.1068 91.8348 59.6854C91.6248 60.2625 91.3997 60.8351 91.1595 61.4016C90.9193 61.9681 90.664 62.5271 90.3935 63.08C90.1231 63.633 89.8391 64.1783 89.54 64.7161C89.2409 65.254 88.9266 65.7827 88.6003 66.3039C88.2725 66.8251 87.9311 67.3357 87.5776 67.8388C87.2225 68.3419 86.8554 68.8344 86.4747 69.3178C86.094 69.8012 85.6997 70.2741 85.2949 70.7364C84.8885 71.1986 84.47 71.6503 84.041 72.0915C83.6104 72.5311 83.1693 72.9601 82.7161 73.3756C82.2644 73.7925 81.8006 74.1974 81.3262 74.5902C80.8518 74.9815 80.3669 75.3607 79.8729 75.7278C79.3789 76.0934 78.8743 76.4469 78.3622 76.7868C77.8485 77.1267 77.3273 77.4515 76.7956 77.7642C76.2653 78.0754 75.7275 78.373 75.1806 78.657C74.6352 78.9396 74.0808 79.2085 73.5203 79.4623C72.9599 79.7161 72.3933 79.9548 71.8193 80.1783C71.2467 80.4019 70.6681 80.6104 70.0834 80.8038C69.4988 80.9972 68.9096 81.1739 68.3159 81.3356C67.7222 81.4972 67.1239 81.6437 66.5227 81.7737C65.9214 81.9036 65.3156 82.0169 64.7083 82.1151C64.101 82.2133 63.4907 82.2949 62.8788 82.3598C62.267 82.4248 61.6536 82.4746 61.0388 82.5064C60.4239 82.5396 59.8091 82.5562 59.1942 82.5562C58.5778 82.5562 57.963 82.5396 57.3481 82.5079C56.7347 82.4746 56.1214 82.4263 55.5095 82.3613C54.8962 82.2964 54.2874 82.2148 53.6786 82.1166C53.0712 82.0199 52.467 81.9066 51.8657 81.7767C35.4533 78.0724 19.2901 73.223 1.57993 68.4975Z" fill="#FABD0D" fill-opacity="0.34"/>
<path d="M57.5205 53.9326C57.1957 54.0384 56.8679 54.1305 56.5355 54.2045C56.2031 54.2801 55.8678 54.339 55.5294 54.3828C55.191 54.4251 54.8526 54.4523 54.5111 54.4629C54.1712 54.475 53.8298 54.4689 53.4899 54.4478C53.15 54.4266 52.8116 54.3889 52.4747 54.3345C52.1378 54.2816 51.8039 54.2121 51.4746 54.126C51.1437 54.0414 50.8189 53.9402 50.4987 53.8238C50.1784 53.7075 49.8642 53.5761 49.556 53.4295C49.2478 53.283 48.9487 53.1229 48.6556 52.9476C48.3625 52.7739 48.08 52.5851 47.8051 52.3841C47.5301 52.1817 47.2657 51.9672 47.0104 51.7406C46.7566 51.514 46.5134 51.2753 46.2823 51.0245C46.0511 50.7752 45.8321 50.5139 45.6251 50.2434C45.4181 49.973 45.2248 49.692 45.045 49.4035C44.8652 49.1134 44.699 48.8158 44.548 48.5107C44.3954 48.2055 44.2579 47.8943 44.137 47.577C44.0207 47.2432 43.9225 46.9048 43.8394 46.5618C43.7563 46.2189 43.6914 45.8729 43.6415 45.524C43.5932 45.1735 43.5615 44.823 43.5463 44.471C43.5312 44.119 43.5327 43.7655 43.5524 43.4135C43.5705 43.0615 43.6068 42.711 43.6596 42.362C43.7125 42.0131 43.782 41.6686 43.8696 41.3257C43.9557 40.9843 44.0585 40.6474 44.1778 40.315C44.2972 39.9826 44.4316 39.6578 44.5827 39.3376C44.7323 39.0188 44.8984 38.7076 45.0797 38.4055C45.2595 38.1018 45.4544 37.8087 45.6644 37.5247C45.8728 37.2407 46.0964 36.9673 46.3321 36.7044C46.5678 36.4415 46.8155 36.1923 47.0754 35.9536C47.3352 35.7149 47.6056 35.4883 47.8881 35.2768C48.1691 35.0637 48.4607 34.8658 48.7629 34.6815C49.0635 34.4972 49.3732 34.328 49.6904 34.1739C50.0077 34.0198 50.331 33.8809 50.6618 33.7585C50.9881 33.6558 51.3175 33.5681 51.6498 33.4956C51.9837 33.4246 52.3206 33.3687 52.659 33.3279C52.9974 33.2887 53.3373 33.2645 53.6787 33.2569C54.0202 33.2494 54.3601 33.2584 54.7015 33.2826C55.0414 33.3068 55.3798 33.3476 55.7152 33.405C56.0521 33.4624 56.3844 33.5349 56.7153 33.6225C57.0446 33.7117 57.3679 33.8159 57.6882 33.9352C58.0085 34.0531 58.3212 34.1875 58.6278 34.3371C58.9345 34.4867 59.2336 34.6498 59.5252 34.8266C59.8168 35.0048 60.0993 35.1952 60.3712 35.3991C60.6447 35.6031 60.9075 35.8206 61.1598 36.0502C61.4136 36.2784 61.6538 36.5201 61.8834 36.7709C62.1131 37.0231 62.3306 37.286 62.5361 37.5595C62.74 37.8314 62.9319 38.1139 63.1101 38.4039C63.2869 38.6955 63.4516 38.9946 63.6011 39.2998C63.7507 39.6065 63.8851 39.9192 64.0045 40.2395C64.1299 40.5688 64.2387 40.9042 64.3293 41.2441C64.4199 41.5855 64.494 41.93 64.5514 42.2774C64.6073 42.6264 64.6465 42.9769 64.6677 43.3289C64.6904 43.6809 64.6934 44.0329 64.6798 44.3849C64.6647 44.7369 64.6329 45.0889 64.5846 45.4378C64.5348 45.7868 64.4683 46.1328 64.3837 46.4757C64.2991 46.8171 64.1979 47.1555 64.08 47.4879C63.9622 47.8203 63.8277 48.1451 63.6767 48.4638C63.5256 48.7826 63.3594 49.0938 63.1766 49.3959C62.9938 49.6981 62.7974 49.9896 62.5859 50.2721C62.3744 50.5547 62.1493 50.8251 61.9106 51.0849C61.6704 51.3448 61.4197 51.591 61.1553 51.8252C60.8924 52.0593 60.6175 52.2799 60.3319 52.4869C60.0449 52.6938 59.7503 52.8857 59.4451 53.0624C59.1385 53.2392 58.8257 53.4008 58.504 53.5459C58.1822 53.6909 57.8544 53.8208 57.5205 53.9326Z" fill="#FABD0D" fill-opacity="0.34"/>
<path d="M101.68 0C105.829 7.33756 107.211 14.1509 109.409 20.6304C113.876 33.828 118.272 47.0785 122.421 60.3577C122.492 60.7399 122.596 61.1131 122.732 61.4772C122.868 61.8413 123.034 62.1902 123.231 62.5256C123.427 62.861 123.651 63.1782 123.901 63.4743C124.152 63.772 124.426 64.0454 124.723 64.2962C125.022 64.5454 125.338 64.769 125.675 64.9639C126.01 65.1603 126.361 65.325 126.725 65.4609C127.089 65.5954 127.462 65.6996 127.844 65.7706C128.227 65.8416 128.613 65.8809 129.002 65.8854C147.266 68.0412 165.502 70.4176 183.739 72.794C184.956 72.9601 187.196 71.744 187.182 74.1763C187.182 75.8622 185.342 76.0692 183.85 76.388C169.208 79.5514 154.69 83.4491 139.924 85.7982C139.315 85.8874 138.703 85.9599 138.09 86.0158C137.478 86.0732 136.863 86.114 136.248 86.1381C135.634 86.1623 135.017 86.1699 134.402 86.1608C133.786 86.1517 133.171 86.1276 132.556 86.0868C131.943 86.0445 131.33 85.9871 130.718 85.913C130.107 85.839 129.499 85.7499 128.891 85.6441C128.285 85.5369 127.683 85.416 127.081 85.277C126.482 85.1395 125.886 84.9855 125.294 84.8147C124.702 84.6455 124.116 84.4597 123.534 84.2588C122.951 84.0579 122.376 83.8418 121.804 83.6107C121.235 83.3781 120.671 83.1318 120.114 82.8705C119.557 82.6091 119.007 82.3326 118.463 82.0426C117.92 81.751 117.386 81.4458 116.86 81.1271C116.333 80.8083 115.816 80.4745 115.307 80.1285C114.798 79.781 114.299 79.4215 113.81 79.0483C113.32 78.6752 112.84 78.29 112.372 77.8911C111.902 77.4923 111.444 77.0814 110.997 76.6584C110.55 76.2354 110.115 75.8018 109.69 75.3546C109.266 74.909 108.855 74.4527 108.454 73.9844C108.054 73.5161 107.667 73.0387 107.293 72.5492C106.918 72.0613 106.557 71.5627 106.209 71.0551C105.862 70.5475 105.527 70.0309 105.206 69.5051C104.886 68.9794 104.579 68.4461 104.288 67.9053C103.996 67.3629 103.718 66.8145 103.455 66.2571C103.192 65.7011 102.945 65.1376 102.712 64.5681C102.478 63.9986 102.26 63.423 102.058 62.8429C101.857 62.2612 101.67 61.6751 101.499 61.0844C101.327 60.4922 101.171 59.897 101.032 59.2987C100.893 58.699 100.769 58.0962 100.662 57.4904C100.555 56.8846 100.463 56.2758 100.387 55.6654C100.313 55.0551 100.254 54.4418 100.212 53.8284C100.168 53.2151 100.142 52.6002 100.132 51.9838C100.05 35.1408 101.087 18.3235 101.68 0Z" fill="#FABD0D" fill-opacity="0.34"/>
<path d="M128.489 51.6106C128.314 51.3206 128.153 51.0199 128.005 50.7133C127.856 50.4066 127.724 50.0939 127.606 49.7751C127.488 49.4548 127.385 49.13 127.298 48.8022C127.211 48.4729 127.139 48.1405 127.083 47.8036C127.029 47.4682 126.988 47.1298 126.965 46.7899C126.941 46.4515 126.933 46.1101 126.943 45.7702C126.952 45.4303 126.976 45.0904 127.018 44.7535C127.059 44.4151 127.115 44.0797 127.187 43.7473C127.261 43.4135 127.349 43.0857 127.453 42.7608C127.557 42.4376 127.677 42.1188 127.811 41.8061C127.944 41.4934 128.094 41.1867 128.257 40.8876C128.42 40.5884 128.597 40.2984 128.789 40.0174C128.979 39.7349 129.183 39.4629 129.399 39.2001C129.616 38.9372 129.845 38.6849 130.085 38.4432C130.327 38.203 130.577 37.9734 130.84 37.7558C131.102 37.5398 131.375 37.3343 131.656 37.144C131.955 36.9536 132.263 36.7784 132.579 36.6198C132.895 36.4596 133.218 36.3146 133.549 36.1862C133.88 36.0578 134.215 35.946 134.555 35.8493C134.896 35.7541 135.242 35.6741 135.59 35.6121C135.939 35.5502 136.291 35.5049 136.644 35.4762C136.996 35.4475 137.35 35.4369 137.705 35.4414C138.06 35.4475 138.412 35.4716 138.764 35.5109C139.116 35.5517 139.466 35.6091 139.812 35.6831C140.158 35.7572 140.501 35.8478 140.838 35.9551C141.176 36.0623 141.509 36.1847 141.834 36.3252C142.16 36.4642 142.477 36.6183 142.788 36.789C143.1 36.9597 143.4 37.144 143.693 37.3434C143.986 37.5428 144.269 37.7573 144.541 37.984C144.813 38.2106 145.073 38.4508 145.322 38.7031C145.571 38.9553 145.807 39.2182 146.03 39.4932C146.253 39.7681 146.462 40.0536 146.657 40.3497C146.833 40.6428 146.994 40.9435 147.141 41.2531C147.287 41.5613 147.42 41.8756 147.537 42.1973C147.653 42.5191 147.754 42.8439 147.84 43.1748C147.926 43.5056 147.996 43.841 148.049 44.1779C148.103 44.5163 148.141 44.8547 148.162 45.1961C148.183 45.5375 148.189 45.879 148.177 46.2204C148.167 46.5618 148.139 46.9017 148.096 47.2416C148.052 47.58 147.991 47.9154 147.916 48.2493C147.84 48.5832 147.748 48.911 147.642 49.2358C147.535 49.5606 147.413 49.8793 147.275 50.1921C147.138 50.5048 146.985 50.8115 146.819 51.1091C146.651 51.4082 146.472 51.6983 146.277 51.9792C146.082 52.2602 145.875 52.5307 145.654 52.792C145.435 53.0549 145.203 53.3041 144.958 53.5444C144.715 53.783 144.459 54.0097 144.193 54.2257C143.928 54.4402 143.653 54.6426 143.367 54.8315C143.072 55.0294 142.77 55.2122 142.458 55.3799C142.145 55.5476 141.825 55.7001 141.497 55.8346C141.169 55.9706 140.835 56.0899 140.495 56.1911C140.157 56.2923 139.812 56.3769 139.463 56.4449C139.116 56.5114 138.765 56.5613 138.412 56.593C138.058 56.6247 137.705 56.6383 137.35 56.6338C136.995 56.6292 136.641 56.6081 136.289 56.5688C135.937 56.528 135.587 56.4706 135.241 56.3966C134.893 56.321 134.552 56.2289 134.215 56.1186C133.877 56.0098 133.546 55.8829 133.221 55.7409C132.898 55.5974 132.581 55.4388 132.272 55.2635C131.964 55.0883 131.665 54.8995 131.375 54.694C131.086 54.4885 130.808 54.2695 130.541 54.0368C130.274 53.8042 130.018 53.5579 129.777 53.2981C129.535 53.0398 129.305 52.7694 129.091 52.4868C128.876 52.2059 128.675 51.9128 128.489 51.6106Z" fill="#FABD0D" fill-opacity="0.34"/>
<path d="M171.365 130.126C171.365 130.478 171.347 130.828 171.314 131.177C171.279 131.526 171.228 131.874 171.158 132.218C171.09 132.562 171.004 132.902 170.903 133.239C170.8 133.575 170.682 133.906 170.548 134.23C170.413 134.554 170.264 134.871 170.098 135.181C169.933 135.49 169.752 135.791 169.557 136.084C169.362 136.376 169.152 136.657 168.93 136.928C168.706 137.2 168.471 137.46 168.223 137.708C167.974 137.957 167.714 138.193 167.442 138.415C167.17 138.639 166.889 138.847 166.596 139.042C166.304 139.237 166.004 139.418 165.694 139.583C165.384 139.749 165.065 139.899 164.742 140.033C164.417 140.167 164.086 140.285 163.75 140.388C163.414 140.489 163.073 140.574 162.728 140.643C162.384 140.711 162.036 140.763 161.687 140.797C161.337 140.832 160.987 140.849 160.636 140.849C160.284 140.849 159.934 140.832 159.585 140.797C159.234 140.763 158.887 140.711 158.542 140.643C158.198 140.574 157.858 140.489 157.521 140.388C157.186 140.285 156.855 140.167 156.53 140.033C156.205 139.899 155.888 139.749 155.578 139.583C155.268 139.418 154.968 139.237 154.675 139.042C154.383 138.847 154.101 138.639 153.829 138.415C153.558 138.193 153.297 137.957 153.049 137.708C152.8 137.46 152.564 137.2 152.342 136.928C152.119 136.657 151.91 136.376 151.715 136.084C151.519 135.791 151.339 135.49 151.173 135.181C151.008 134.871 150.857 134.554 150.723 134.23C150.588 133.906 150.47 133.575 150.369 133.239C150.266 132.902 150.182 132.562 150.112 132.218C150.044 131.874 149.993 131.526 149.958 131.177C149.924 130.828 149.907 130.478 149.907 130.126C149.907 129.775 149.924 129.425 149.958 129.076C149.993 128.725 150.044 128.379 150.112 128.035C150.182 127.69 150.266 127.349 150.369 127.014C150.47 126.677 150.588 126.347 150.723 126.023C150.857 125.698 151.008 125.381 151.173 125.071C151.339 124.761 151.519 124.46 151.715 124.169C151.91 123.877 152.119 123.595 152.342 123.323C152.564 123.053 152.8 122.793 153.049 122.543C153.297 122.296 153.558 122.06 153.829 121.838C154.101 121.614 154.383 121.406 154.675 121.211C154.968 121.016 155.268 120.835 155.578 120.67C155.888 120.504 156.205 120.354 156.53 120.22C156.855 120.085 157.186 119.968 157.521 119.865C157.858 119.764 158.198 119.678 158.542 119.61C158.887 119.54 159.234 119.489 159.585 119.455C159.934 119.421 160.284 119.403 160.636 119.403C160.987 119.403 161.337 119.421 161.687 119.455C162.036 119.489 162.384 119.54 162.728 119.61C163.073 119.678 163.414 119.764 163.75 119.865C164.086 119.968 164.417 120.085 164.742 120.22C165.065 120.354 165.384 120.504 165.694 120.67C166.004 120.835 166.304 121.016 166.596 121.211C166.889 121.406 167.17 121.614 167.442 121.838C167.714 122.06 167.974 122.296 168.223 122.543C168.471 122.793 168.706 123.053 168.93 123.323C169.152 123.595 169.362 123.877 169.557 124.169C169.752 124.46 169.933 124.761 170.098 125.071C170.264 125.381 170.413 125.698 170.548 126.023C170.682 126.347 170.8 126.677 170.903 127.014C171.004 127.349 171.09 127.69 171.158 128.035C171.228 128.379 171.279 128.725 171.314 129.076C171.347 129.425 171.365 129.775 171.365 130.126Z" fill="#FABD0D" fill-opacity="0.34"/>
<path d="M103.851 174.068C103.851 174.42 103.834 174.769 103.8 175.119C103.765 175.468 103.714 175.816 103.646 176.16C103.576 176.505 103.491 176.845 103.39 177.18C103.288 177.517 103.17 177.848 103.035 178.171C102.901 178.496 102.75 178.813 102.585 179.123C102.419 179.432 102.239 179.733 102.043 180.025C101.848 180.318 101.639 180.599 101.416 180.871C101.194 181.143 100.958 181.402 100.709 181.65C100.461 181.898 100.201 182.134 99.9292 182.357C99.6573 182.579 99.3747 182.789 99.0832 182.984C98.7916 183.179 98.4895 183.359 98.1798 183.525C97.8701 183.69 97.5528 183.841 97.228 183.975C96.9032 184.11 96.5739 184.228 96.237 184.329C95.9001 184.431 95.5602 184.516 95.2157 184.586C94.8713 184.654 94.5238 184.705 94.1733 184.74C93.8244 184.774 93.4739 184.791 93.1219 184.791C92.7714 184.791 92.4209 184.774 92.0704 184.74C91.7215 184.705 91.374 184.654 91.0295 184.586C90.6851 184.516 90.3437 184.431 90.0083 184.329C89.6714 184.228 89.3406 184.11 89.0173 183.975C88.6925 183.841 88.3752 183.69 88.064 183.525C87.7543 183.359 87.4537 183.179 87.1621 182.984C86.869 182.789 86.588 182.579 86.3161 182.357C86.0442 182.134 85.7843 181.898 85.5351 181.65C85.2873 181.402 85.0516 181.143 84.828 180.871C84.606 180.599 84.396 180.318 84.2011 180.025C84.0062 179.733 83.8264 179.432 83.6603 179.123C83.4941 178.813 83.3445 178.496 83.2101 178.171C83.0756 177.848 82.9578 177.517 82.855 177.18C82.7538 176.845 82.6677 176.505 82.5997 176.16C82.5302 175.816 82.4789 175.468 82.4456 175.119C82.4109 174.769 82.3928 174.42 82.3928 174.068C82.3928 173.717 82.4109 173.367 82.4456 173.016C82.4789 172.667 82.5302 172.32 82.5997 171.976C82.6677 171.631 82.7538 171.291 82.855 170.956C82.9578 170.619 83.0756 170.29 83.2101 169.965C83.3445 169.64 83.4941 169.323 83.6603 169.013C83.8264 168.703 84.0062 168.403 84.2011 168.111C84.396 167.818 84.606 167.537 84.828 167.265C85.0516 166.993 85.2873 166.733 85.5351 166.486C85.7843 166.238 86.0442 166.002 86.3161 165.779C86.588 165.557 86.869 165.348 87.1621 165.152C87.4537 164.957 87.7543 164.777 88.064 164.611C88.3752 164.446 88.6925 164.295 89.0173 164.161C89.3406 164.026 89.6714 163.908 90.0083 163.807C90.3437 163.704 90.6851 163.62 91.0295 163.552C91.374 163.482 91.7215 163.431 92.0704 163.396C92.4209 163.363 92.7714 163.345 93.1219 163.345C93.4739 163.345 93.8244 163.363 94.1733 163.396C94.5238 163.431 94.8713 163.482 95.2157 163.552C95.5602 163.62 95.9001 163.704 96.237 163.807C96.5739 163.908 96.9032 164.026 97.228 164.161C97.5528 164.295 97.8701 164.446 98.1798 164.611C98.4895 164.777 98.7916 164.957 99.0832 165.152C99.3747 165.348 99.6573 165.557 99.9292 165.779C100.201 166.002 100.461 166.238 100.709 166.486C100.958 166.733 101.194 166.993 101.416 167.265C101.639 167.537 101.848 167.818 102.043 168.111C102.239 168.403 102.419 168.703 102.585 169.013C102.75 169.323 102.901 169.64 103.035 169.965C103.17 170.29 103.288 170.619 103.39 170.956C103.491 171.291 103.576 171.631 103.646 171.976C103.714 172.32 103.765 172.667 103.8 173.016C103.834 173.367 103.851 173.717 103.851 174.068Z" fill="#FABD0D" fill-opacity="0.34"/>
<path d="M188.882 76.4287C184.002 83.3372 178.429 87.4826 173.507 92.1946C163.457 101.868 153.336 111.471 143.091 120.882C140.324 123.411 139.758 125.649 140.933 129.172C146.768 146.597 152.368 164.105 157.982 181.599C158.368 182.773 160.414 184.279 158.216 185.315C156.681 186.034 155.714 184.445 154.787 183.243C145.675 171.346 135.998 159.849 127.523 147.523C127.181 147.011 126.855 146.488 126.544 145.958C126.231 145.428 125.932 144.89 125.649 144.345C125.365 143.798 125.096 143.245 124.841 142.684C124.587 142.124 124.347 141.557 124.123 140.985C123.898 140.412 123.69 139.834 123.497 139.249C123.303 138.664 123.125 138.077 122.963 137.483C122.8 136.889 122.654 136.291 122.524 135.69C122.394 135.088 122.279 134.484 122.181 133.877C122.082 133.269 122.001 132.659 121.934 132.047C121.868 131.435 121.818 130.824 121.785 130.209C121.752 129.594 121.735 128.979 121.735 128.364C121.734 127.749 121.75 127.134 121.782 126.52C121.814 125.905 121.862 125.291 121.927 124.68C121.992 124.068 122.072 123.457 122.17 122.85C122.267 122.243 122.38 121.638 122.509 121.037C122.638 120.434 122.783 119.838 122.945 119.244C123.105 118.649 123.282 118.06 123.474 117.475C123.667 116.892 123.874 116.312 124.098 115.739C124.321 115.165 124.559 114.599 124.812 114.037C125.066 113.476 125.334 112.923 125.616 112.376C125.9 111.829 126.196 111.29 126.507 110.76C126.819 110.23 127.145 109.707 127.483 109.193C127.823 108.68 128.175 108.175 128.541 107.681C128.908 107.185 129.286 106.7 129.678 106.226C130.07 105.752 130.473 105.288 130.89 104.835C131.307 104.382 131.734 103.939 132.174 103.508C132.614 103.078 133.065 102.659 133.528 102.253C133.99 101.847 134.463 101.452 134.945 101.072C135.428 100.689 135.921 100.321 136.424 99.9657C136.927 99.6107 137.439 99.2693 137.959 98.9414C138.48 98.6121 139.01 98.2994 139.546 97.9988C140.084 97.6981 140.63 97.4126 141.182 97.1422C156.364 89.8877 172.042 83.6832 188.882 76.4287Z" fill="#FABD0D" fill-opacity="0.34"/>
</g>
</svg>
